<svg id="Layer_1" data-name="Layer 1" xmlns="http://www.w3.org/2000/svg" viewBox="0 0 325.07 73.83"><title>Atomberg logo - Brandlogos.net</title><path d="M409.72,408.11a2.21,2.21,0,0,1,.37-1.12l1-1.9h.9l-.64,1.93a1.13,1.13,0,0,1,.69,1.06,1.17,1.17,0,0,1-2.34,0m3.3,0a2.24,2.24,0,0,1,.39-1.12l1-1.9h.9l-.64,1.93a1.13,1.13,0,0,1,.69,1.06,1.18,1.18,0,0,1-2.36,0" transform="translate(-221.46 -347.09)" style="fill:#231f20"/><path d="M418.34,405.1h2l2.13,6.42c.23.67.46,1.72.46,1.72s.3-1,.59-1.72l2.77-6.54h.23l2.78,6.54a16.94,16.94,0,0,1,.57,1.72s.25-1,.48-1.72l2.13-6.42h1.83l-4.17,12.18h-.23l-3-7.18a15.28,15.28,0,0,1-.5-1.47s-.28.89-.53,1.47l-3.07,7.18h-.23Z" transform="translate(-221.46 -347.09)" style="fill:#231f20"/><path d="M436.42,404.35h1.79V411a2.69,2.69,0,0,1,2.48-1.47c1.65,0,2.78,1.17,2.78,3.19v4.42h-1.79v-4.27c0-1.06-.5-1.68-1.54-1.68a1.78,1.78,0,0,0-1.93,1.91v4h-1.79Z" transform="translate(-221.46 -347.09)" style="fill:#231f20"/><path d="M449,416.48l-3.05-6.77h2l1.56,3.72a8.89,8.89,0,0,1,.43,1.54,8.25,8.25,0,0,1,.41-1.54l1.6-3.72h1.86l-4.88,11.21H447Z" transform="translate(-221.46 -347.09)" style="fill:#231f20"/><path d="M461.21,409.71H463l0,1.38a2.69,2.69,0,0,1,2.52-1.54c1.65,0,2.78,1.17,2.78,3.19v4.42h-1.79v-4.27c0-1.06-.5-1.68-1.54-1.68a1.78,1.78,0,0,0-1.93,1.91v4h-1.79Z" transform="translate(-221.46 -347.09)" style="fill:#231f20"/><path d="M471.33,413.43a4,4,0,1,1,4,3.88,3.89,3.89,0,0,1-4-3.88m6.19,0a2.18,2.18,0,1,0-4.34,0,2.18,2.18,0,1,0,4.34,0" transform="translate(-221.46 -347.09)" style="fill:#231f20"/><path d="M483.25,414.64v-3.42h-1.12v-1.51h1.12v-3.88H485v3.88h2v1.51h-2v3.46c0,.85.28,1.1.74,1.1a1.32,1.32,0,0,0,.89-.35l.85,1.21a2.63,2.63,0,0,1-1.92.71c-1.4,0-2.36-.71-2.36-2.7" transform="translate(-221.46 -347.09)" style="fill:#231f20"/><path d="M492,410.49h.69a2,2,0,0,0,2.25-2,1.81,1.81,0,0,0-1.88-1.9,2.23,2.23,0,0,0-2.16,1.38l-1.45-.83a3.65,3.65,0,0,1,3.62-2.16,3.47,3.47,0,0,1,3.72,3.51,3.26,3.26,0,0,1-3.1,3.4v1.61H492Zm-.39,5.57a1.21,1.21,0,1,1,1.2,1.21,1.19,1.19,0,0,1-1.2-1.21" transform="translate(-221.46 -347.09)" style="fill:#231f20"/><path d="M500.27,407.21a1.15,1.15,0,0,1-.67-1.06,1.17,1.17,0,0,1,2.34,0,2.21,2.21,0,0,1-.37,1.12l-1,1.9h-.9Zm3.32,0a1.16,1.16,0,0,1-.69-1.06,1.18,1.18,0,0,1,2.36,0,2.38,2.38,0,0,1-.37,1.12l-1,1.9h-.9Z" transform="translate(-221.46 -347.09)" style="fill:#231f20"/><path d="M282.48,377.59A30.51,30.51,0,1,1,252,347.09a30.51,30.51,0,0,1,30.51,30.51" transform="translate(-221.46 -347.09)" style="fill:#fdb913"/><path d="M267.18,393.57h-7a1,1,0,0,1-1-1v-2.46a15.08,15.08,0,0,1-11,4.36c-7.37,0-12.05-4.1-12.4-10v7.81a6.17,6.17,0,0,0,6.17,6.17h20c3.45,0,6.27-2.08,6.26-5.77a1,1,0,0,1-1,1" transform="translate(-221.46 -347.09)" style="fill:#231f20"/><path d="M249.33,373.24H237.27a1.5,1.5,0,0,0-1.51,1.5V383c.37-6,5.49-9.73,13.57-9.73" transform="translate(-221.46 -347.09)" style="fill:#231f20"/><path d="M252.66,377.92a4.83,4.83,0,1,0,3.94,3.94,4.84,4.84,0,0,0-3.94-3.94" transform="translate(-221.46 -347.09)" style="fill:#231f20"/><path d="M246.43,366.65l.19-.09.43-.22a9.83,9.83,0,0,1,3.59-1c.34,0,.68,0,1,0,4.36,0,6.69,2.4,6.69,6.4v1.53h9.81v-1c0-10-6-15.48-15.41-15.48a19.8,19.8,0,0,0-9.51,2.28l-.87.5,0,0h0l0,0-.12.08a4.1,4.1,0,0,0-1.09,5.7,4.06,4.06,0,0,0,2.44,1.65,4.15,4.15,0,0,0,1.48.07,4.6,4.6,0,0,0,1.44-.48" transform="translate(-221.46 -347.09)" style="fill:#231f20"/><path d="M310.51,396.86a10.61,10.61,0,0,1-.51-2.54,10.35,10.35,0,0,1-3.89,2.4,16.12,16.12,0,0,1-5.62.9q-5.43,0-7.95-2.17A7.09,7.09,0,0,1,290,389.8a9.5,9.5,0,0,1,1.09-4.89,7.68,7.68,0,0,1,3-2.87,15.51,15.51,0,0,1,4.56-1.53q2.65-.49,5.78-.89a12,12,0,0,0,4.21-1.07,2.35,2.35,0,0,0,1.09-2.17,2.4,2.4,0,0,0-1.44-2.17,8.09,8.09,0,0,0-3.86-.78,6,6,0,0,0-4.12,1.16,5.22,5.22,0,0,0-1.56,3.07H291a11.84,11.84,0,0,1,.8-4,7.77,7.77,0,0,1,2.36-3.18,11.45,11.45,0,0,1,4.24-2.05,24.24,24.24,0,0,1,6.38-.72,22.74,22.74,0,0,1,6.29.75,10.4,10.4,0,0,1,4.15,2.17,8.15,8.15,0,0,1,2.26,3.53,15.15,15.15,0,0,1,.7,4.78v18Zm-.57-13.94a4.65,4.65,0,0,1-1.85.93q-1.21.35-3.51.75a12.67,12.67,0,0,0-4.91,1.62,3.31,3.31,0,0,0-1.34,2.84q0,3.18,4,3.18a8.75,8.75,0,0,0,3-.49,7.52,7.52,0,0,0,2.36-1.33,6.72,6.72,0,0,0,1.6-2,5,5,0,0,0,.61-2.4Z" transform="translate(-221.46 -347.09)" style="fill:#231f20"/><path d="M339,378.12h7.72v8.1a12.75,12.75,0,0,1-.73,4.31,9.91,9.91,0,0,1-2.3,3.64,11,11,0,0,1-4,2.52,15.81,15.81,0,0,1-5.71.93,16.45,16.45,0,0,1-5.87-.93,11.19,11.19,0,0,1-4-2.49,9.24,9.24,0,0,1-2.26-3.64,13.67,13.67,0,0,1-.7-4.4v-28.5h8.17V368.4h17.36v5.32H329.33V385.4a6.83,6.83,0,0,0,1.12,4.19,4.3,4.3,0,0,0,3.67,1.48,4.46,4.46,0,0,0,3.67-1.45,6.35,6.35,0,0,0,1.18-4.11Z" transform="translate(-221.46 -347.09)" style="fill:#231f20"/><path d="M365.13,397.61a19.78,19.78,0,0,1-6.83-1.1,14.49,14.49,0,0,1-5.08-3.07,12.92,12.92,0,0,1-3.16-4.74,16.55,16.55,0,0,1-1.08-6.08,16.27,16.27,0,0,1,1.12-6.13,13,13,0,0,1,3.22-4.74,14.53,14.53,0,0,1,5.07-3,19.78,19.78,0,0,1,6.73-1.07,19.31,19.31,0,0,1,6.64,1.07,14.5,14.5,0,0,1,5,3,13,13,0,0,1,3.19,4.71,16.49,16.49,0,0,1,1.12,6.19,16.25,16.25,0,0,1-1.12,6.16,13.28,13.28,0,0,1-3.19,4.72,14.23,14.23,0,0,1-5,3,19.38,19.38,0,0,1-6.61,1.07m0-6.31q7.59,0,7.59-8.68T365.13,374q-7.6,0-7.6,8.62t7.6,8.68" transform="translate(-221.46 -347.09)" style="fill:#231f20"/><path d="M420.47,396.86V379.62a6.41,6.41,0,0,0-1.34-4.22,4.4,4.4,0,0,0-3.58-1.62,4.8,4.8,0,0,0-3.8,1.74,6.39,6.39,0,0,0-1.5,4.34v17H402V379.73a13,13,0,0,0-.26-2.83,3.66,3.66,0,0,0-.86-1.73,3.31,3.31,0,0,0-1.56-.9A8.78,8.78,0,0,0,397,374q-5,0-5,5.55v17.3h-8.3V368.39h7.79v4.16a8.83,8.83,0,0,1,3.83-3.87,12.61,12.61,0,0,1,5.36-1,15.79,15.79,0,0,1,2.84.23,7.33,7.33,0,0,1,2.23.78,9,9,0,0,1,1.88,1.42,16.77,16.77,0,0,1,1.79,2.08,7.93,7.93,0,0,1,3.38-3.44,11.17,11.17,0,0,1,5.11-1.07,12.55,12.55,0,0,1,4.34.72,10,10,0,0,1,3.38,2,9.59,9.59,0,0,1,2.2,3,8.78,8.78,0,0,1,.8,3.7v19.73Z" transform="translate(-221.46 -347.09)" style="fill:#231f20"/><path d="M431.61,396.86V358h8.17V372.1a11.27,11.27,0,0,1,9.32-4.46,13.26,13.26,0,0,1,5.46,1.07,11.21,11.21,0,0,1,4.05,3,13.51,13.51,0,0,1,2.52,4.66,19.39,19.39,0,0,1,.86,5.93,18.89,18.89,0,0,1-1,6.42,14.23,14.23,0,0,1-2.81,4.8,11.85,11.85,0,0,1-4.31,3,14.16,14.16,0,0,1-5.46,1q-5.87,0-8.74-4.22l-.06,3.47Zm14.87-5.38a6.32,6.32,0,0,0,5.11-2.4,9.48,9.48,0,0,0,2-6.22q0-8.79-7.15-8.8-7,0-7,9.26a8.54,8.54,0,0,0,2,5.9,6.43,6.43,0,0,0,5,2.26" transform="translate(-221.46 -347.09)" style="fill:#231f20"/><path d="M472.61,384.6a7.7,7.7,0,0,0,2.07,5.15,6.64,6.64,0,0,0,4.95,1.91,7.5,7.5,0,0,0,3.61-.84,3.86,3.86,0,0,0,2-2.34h8.55a12.54,12.54,0,0,1-5.11,6.77,15.52,15.52,0,0,1-8.68,2.37q-15.7,0-15.7-15.51a16.53,16.53,0,0,1,1-6,12.69,12.69,0,0,1,3-4.57,12.93,12.93,0,0,1,4.76-2.92,19,19,0,0,1,6.45-1q7.28,0,11,4.22t3.73,12.73Zm13.08-4.75a7.3,7.3,0,0,0-.6-2.75,5.69,5.69,0,0,0-3.48-3.12,7.47,7.47,0,0,0-2.36-.38,6.21,6.21,0,0,0-4.31,1.65,6.72,6.72,0,0,0-2.07,4.6Z" transform="translate(-221.46 -347.09)" style="fill:#231f20"/><path d="M496.6,396.86V368.39h7.79v3.41a9.59,9.59,0,0,1,2.14-2.26,9.46,9.46,0,0,1,4.69-1.79q1.21-.11,2.49-.11h1.08v7.69a15.15,15.15,0,0,0-2.3-.17q-7.6,0-7.6,6.88v14.81Z" transform="translate(-221.46 -347.09)" style="fill:#231f20"/><path d="M538.24,393a6.22,6.22,0,0,1-3.22,3,12.76,12.76,0,0,1-5.39,1.07,15.32,15.32,0,0,1-6.54-1.24,11.8,11.8,0,0,1-4.28-3.27,12.8,12.8,0,0,1-2.36-4.68,20.35,20.35,0,0,1-.73-5.44,16.29,16.29,0,0,1,1.08-6,14.28,14.28,0,0,1,2.94-4.68,13,13,0,0,1,4.34-3,13.42,13.42,0,0,1,5.36-1.07q5.87,0,8.81,4.28V368.4h8.3v28.75a12.74,12.74,0,0,1-1.21,5.7A11.69,11.69,0,0,1,542,407a15,15,0,0,1-5,2.52,22.2,22.2,0,0,1-12.19,0,14.84,14.84,0,0,1-4.82-2.37,11.13,11.13,0,0,1-3.16-3.73,10.6,10.6,0,0,1-1.15-5h7.72a4.73,4.73,0,0,0,1.88,4,8.12,8.12,0,0,0,5,1.42,9.38,9.38,0,0,0,5.62-1.65,5.24,5.24,0,0,0,2.3-4.48Zm-6.83-1.85a6.71,6.71,0,0,0,5.07-2.11,8,8,0,0,0,2-5.76q0-9.14-7.08-9.14t-7.09,8.68a8.79,8.79,0,0,0,2,6.07,6.51,6.51,0,0,0,5.08,2.26" transform="translate(-221.46 -347.09)" style="fill:#231f20"/></svg>