<svg xmlns="http://www.w3.org/2000/svg" viewBox="0 0 24 24" width="100%" height="100%" fill="#10b981">
  <path d="M12 2C6.48 2 2 6.48 2 12s4.48 10 10 10c1.42 0 2.79-.26 4.05-.73l3.56 1.47c.18.07.38.07.56 0 .35-.14.58-.5.58-.88v-3.1c1.91-1.78 3.25-4.31 3.25-7.09 0-5.52-4.48-10-10-10zm-3.5 11c-.83 0-1.5-.67-1.5-1.5S7.67 10 8.5 10s1.5.67 1.5 1.5-.67 1.5-1.5 1.5zm3.5 0c-.83 0-1.5-.67-1.5-1.5S11.67 10 12.5 10s1.5.67 1.5 1.5-.67 1.5-1.5 1.5zm3.5 0c-.83 0-1.5-.67-1.5-1.5s.67-1.5 1.5-1.5 1.5.67 1.5 1.5-.67 1.5-1.5 1.5z"/>
</svg> 